<?xml version="1.0" encoding="UTF-8"?>
<svg width="24px" height="24px" viewBox="0 0 24 24" version="1.1" xmlns="http://www.w3.org/2000/svg">
    <g stroke="none" stroke-width="1" fill="none" fill-rule="evenodd">
        <path d="M8,2 L8,8 L2,8 L2,2 L8,2 Z M7,3 L3,3 L3,7 L7,7 L7,3 Z" fill="#FFFFFF"></path>
        <path d="M5,5 L5,5 L5,5 L5,5 Z" fill="#FFFFFF"></path>
        <path d="M16,2 L22,2 L22,8 L16,8 L16,2 Z M17,3 L17,7 L21,7 L21,3 L17,3 Z" fill="#FFFFFF"></path>
        <path d="M19,5 L19,5 L19,5 L19,5 Z" fill="#FFFFFF"></path>
        <path d="M2,16 L8,16 L8,22 L2,22 L2,16 Z M3,17 L3,21 L7,21 L7,17 L3,17 Z" fill="#FFFFFF"></path>
        <path d="M5,19 L5,19 L5,19 L5,19 Z" fill="#FFFFFF"></path>
        <path d="M10,2 L10,5 L12,5 L12,2 L14,2 L14,5 L12,5 L12,6 L14,6 L14,8 L10,8 L10,6 L10,5 L10,5 L10,5 L10,2 Z" fill="#FFFFFF"></path>
        <path d="M10,10 L14,10 L14,14 L10,14 L10,10 Z M12,12 L12,12 L12,12 L12,12 Z" fill="#FFFFFF"></path>
        <path d="M16,10 L16,14 L22,14 L22,10 L16,10 Z" fill="#FFFFFF"></path>
        <path d="M10,16 L10,17 L12,17 L12,16 L10,16 Z" fill="#FFFFFF"></path>
        <path d="M14,16 L14,17 L16,17 L16,16 L14,16 Z" fill="#FFFFFF"></path>
        <path d="M18,16 L18,17 L20,17 L20,19 L22,19 L22,16 L18,16 Z" fill="#FFFFFF"></path>
        <path d="M20,21 L22,21 L22,22 L20,22 L20,21 Z" fill="#FFFFFF"></path>
        <path d="M18,20 L18,21 L16,21 L16,22 L20,22 L20,20 L18,20 Z" fill="#FFFFFF"></path>
        <path d="M16,19 L16,20 L14,20 L14,19 L16,19 Z" fill="#FFFFFF"></path>
        <path d="M12,18 L12,22 L14,22 L14,18 L12,18 Z" fill="#FFFFFF"></path>
        <path d="M10,18 L10,20 L12,20 L12,18 L10,18 Z" fill="#FFFFFF"></path>
        <path d="M10,20 L10,22 L12,22 L12,20 L10,20 Z" fill="#FFFFFF"></path>
    </g>
</svg>
